# xmcd CD database file
#
# Track frame offsets:
#	150
#	15510
#	28645
#	46552
#	60177
#	71722
#	84905
#	102110
#	116002
#	126682
#	142037
#	158115
#	171545
#	191202
#
# Disc length: 2789 seconds
#
# Revision: 2
# Processed by: cddbd v1.5.2PL0 Copyright (c) Steve Scherf et al.
# Submitted via: CDex 1.51
#
DISCID=bd0ae30e
DTITLE=Louis Armstrong - Sweet Georgia Brown
DYEAR=1997
DGENRE=Jazz
TTITLE0=Mack the knife
TTITLE1=Blueberry Hill
TTITLE2=Cabaret
TTITLE3=A kiss to build a dream on
TTITLE4=Hello Dolly
TTITLE5=That's my desire
TTITLE6=Panama
TTITLE7=Blue skies
TTITLE8=Lover
TTITLE9=Whispering
TTITLE10=A song was born
TTITLE11=Jack - Armstrong blues
TTITLE12=La vie en rose
TTITLE13=Sweet Georgia Brown
EXTD=YEAR: 1997
EXTT0=
EXTT1=
EXTT2=
EXTT3=
EXTT4=
EXTT5=
EXTT6=
EXTT7=
EXTT8=
EXTT9=
EXTT10=
EXTT11=
EXTT12=
EXTT13=
PLAYORDER=
